<svg xmlns="http://www.w3.org/2000/svg" viewBox="0 -0.5 18 15" shape-rendering="crispEdges">
<metadata>Made with Pixels to Svg https://codepen.io/shshaw/pen/XbxvNj</metadata>
<path stroke="#a0a0a0" d="M0 0h8M0 1h8" />
<path stroke="#979797" d="M0 2h8M0 3h8" />
<path stroke="#dedede" d="M8 2h10M8 3h10M0 4h8M0 5h8" />
<path stroke="#d6d6d6" d="M8 4h10M8 5h10M0 6h18M0 7h4M14 7h4" />
<path stroke="#929292" d="M4 7h10" />
<path stroke="#d1d1d1" d="M0 8h4M14 8h4M0 9h4M14 9h4" />
<path stroke="#8b8b8b" d="M4 8h10M4 9h10" />
<path stroke="#cecece" d="M0 10h4M7 10h4M14 10h4M0 11h4M7 11h4M14 11h4" />
<path stroke="#838383" d="M4 10h3M11 10h3" />
<path stroke="#7e7e7e" d="M4 11h3M11 11h3" />
<path stroke="#c8c8c8" d="M0 12h4M7 12h4M14 12h4M0 13h4M7 13h4M14 13h4" />
<path stroke="#7a7a7a" d="M4 12h3M11 12h3" />
<path stroke="#757575" d="M4 13h3M11 13h3M4 14h3M11 14h3" />
</svg>